<?xml version="1.0" encoding="UTF-8" standalone="no"?>
<svg
   xmlns:dc="http://purl.org/dc/elements/1.1/"
   xmlns:cc="http://creativecommons.org/ns#"
   xmlns:rdf="http://www.w3.org/1999/02/22-rdf-syntax-ns#"
   xmlns:svg="http://www.w3.org/2000/svg"
   xmlns="http://www.w3.org/2000/svg"
   id="svg16"
   version="1.1"
   height="36.574001"
   width="44.713428">
  <metadata
     id="metadata22">
    <rdf:RDF>
      <cc:Work
         rdf:about="">
        <dc:format>image/svg+xml</dc:format>
        <dc:type
           rdf:resource="http://purl.org/dc/dcmitype/StillImage" />
        <dc:title></dc:title>
      </cc:Work>
    </rdf:RDF>
  </metadata>
  <defs
     id="defs20" />
  <g
     id="g3744">
    <path
       style="fill:#75a4e5;fill-rule:evenodd"
       id="path8"
       d="m 38.467,6.321 a 6.372,6.372 0 0 0 -3.222,0.895 c 0.457,1.333 0.676,2.725 0.676,4.217 0,2.168 -0.517,4.217 -1.452,6.007 a 6.216,6.216 0 0 0 3.998,1.432 c 3.461,0 6.246,-2.825 6.246,-6.246 A 6.232,6.232 0 0 0 38.467,6.321" />
    <path
       style="fill:#3a5f93;fill-rule:evenodd"
       id="path10"
       d="M 22.754,0 C 16.43,0 11.277,5.132 11.277,11.477 c 0,2.545 0.836,4.853 2.228,6.742 L 9.03,23.27 c 1.571,0.617 2.844,1.77 3.66,3.223 l 4.455,-5.013 a 11.412,11.412 0 0 0 5.59,1.452 c 6.324,0 11.476,-5.131 11.476,-11.476 C 34.191,5.17 29.08,0 22.754,0" />
    <path
       style="fill:#75a4e5;fill-rule:evenodd"
       id="path12"
       d="m 6.305,23.964 a 6.305,6.305 0 1 1 0,12.61 6.305,6.305 0 0 1 0,-12.61" />
  </g>
</svg>
